<svg xmlns="http://www.w3.org/2000/svg" viewBox="0 0 100 100">
  <defs>
    <linearGradient id="brainGrad" x1="0%" y1="0%" x2="100%" y2="100%">
      <stop offset="0%" style="stop-color:#8b5cf6;stop-opacity:1" />
      <stop offset="100%" style="stop-color:#3b82f6;stop-opacity:1" />
    </linearGradient>
  </defs>
  <circle cx="50" cy="50" r="48" fill="url(#brainGrad)"/>
  <path d="M35 40 Q30 35 25 40 Q20 45 25 50 Q20 55 25 60 Q30 65 35 60 Q40 65 45 60 Q50 65 55 60 Q60 65 65 60 Q70 55 65 50 Q70 45 65 40 Q60 35 55 40 Q50 35 45 40 Q40 35 35 40" 
        fill="none" 
        stroke="white" 
        stroke-width="2" 
        stroke-linecap="round"/>
  <circle cx="40" cy="45" r="2" fill="white"/>
  <circle cx="50" cy="50" r="2" fill="white"/>
  <circle cx="60" cy="45" r="2" fill="white"/>
  <circle cx="45" cy="55" r="2" fill="white"/>
  <circle cx="55" cy="55" r="2" fill="white"/>
</svg>

